<svg width="30" height="30" viewBox="0 0 30 30" fill="none" xmlns="http://www.w3.org/2000/svg">
<path d="M22.5 0.885986C19.3753 0.885986 17.0109 2.71976 15 4.63599C13.0838 2.60255 10.6247 0.885986 7.5 0.885986C3.09936 0.885986 0 4.66971 0 8.79569C0 11.0091 0.906569 12.6038 1.89936 14.101L13.5553 28.0753C14.8641 29.46 15.1106 29.46 16.4194 28.0753L28.1015 14.101C29.2687 12.6038 30 11.0091 30 8.79569C30 4.66976 26.9006 0.885986 22.5 0.885986ZM26.25 13.7129L15 27.136L3.75 13.6576C2.40471 11.7873 1.875 10.5254 1.875 8.79569C1.875 5.57255 4.17657 2.67099 7.5 2.64378C10.2338 2.62128 13.3322 5.41314 15 7.51785C16.6238 5.48628 19.7662 2.64378 22.5 2.64378C25.7353 2.64378 28.125 5.57255 28.125 8.79569C28.125 10.5254 27.7059 11.881 26.25 13.7129Z" fill="#FF5B5B"/>
</svg>
