<svg width="30" height="30" viewBox="0 0 30 30" fill="none" xmlns="http://www.w3.org/2000/svg">
<path fill-rule="evenodd" clip-rule="evenodd" d="M10.1074 2.67187C7.95815 3.00196 7.50009 4.29884 7.50009 5.71874V23.2931C6.84352 23.1056 6.11956 23 5.35716 23C2.39866 23 0 24.5664 0 26.5C0 28.4336 2.39866 30 5.35716 30C8.31565 30 10.7143 28.4336 10.7143 26.5C10.7143 26.3227 10.6876 26.1498 10.6487 25.9796L10.7143 26.0001V11.5715L26.7858 9.42859V21.2933C26.1292 21.1058 25.4052 21.0002 24.6428 21.0002C21.6845 21.0002 19.2857 22.5666 19.2857 24.5002C19.2857 26.4337 21.6845 28.0001 24.6428 28.0001C27.4966 28.0001 29.8228 26.5415 29.9843 24.7029L30 24.7063V0L10.1074 2.67187Z" fill="#FF5B5B"/>
</svg>
