<svg width="28" height="28" viewBox="0 0 28 28" fill="none" xmlns="http://www.w3.org/2000/svg">
<circle cx="14" cy="14" r="14" fill="#FF5B5B"/>
<path d="M12.9139 4.00956C11.9126 4.13756 11.5316 4.22899 11.0334 4.46215C9.85141 5.01531 9.24576 5.92506 9.06992 7.40169C9.00154 7.99142 9.07481 8.97432 9.25553 9.76521C9.4509 10.6612 9.4509 10.5835 9.27995 10.7801C9.08946 10.9995 9.03085 11.2784 9.08946 11.6853C9.17738 12.2842 9.4509 12.7413 9.78792 12.8556C9.91003 12.9013 9.95887 12.9425 9.95887 13.0156C9.95887 13.2076 10.208 13.9162 10.4033 14.2865C10.6134 14.6843 10.9553 15.1368 11.0383 15.1368C11.0774 15.1368 11.0871 15.4569 11.0725 16.1563C11.053 17.2946 11.0481 17.3038 10.6769 17.6832C10.2617 18.1038 9.68535 18.401 8.15167 18.977C7.04293 19.393 6.32494 19.7176 5.88046 19.9965C5.12339 20.4719 4.58123 21.0525 4.30283 21.6879C4.15141 22.0262 4 22.616 4 22.8629V23H13.5H23L22.9707 22.8034C22.829 21.8205 22.5213 21.2079 21.8717 20.5908C21.2563 20.0102 20.4895 19.6033 18.7751 18.9541C17.2609 18.3781 16.7432 18.1084 16.3183 17.6787C15.9519 17.3084 15.947 17.2855 15.9275 16.1883L15.908 15.2054L16.1131 14.9997C16.4013 14.7117 16.7725 13.9711 16.9288 13.3813C17.0362 12.9882 17.0753 12.8922 17.1584 12.8693C17.2951 12.8328 17.5686 12.5859 17.6614 12.4213C17.8666 12.0556 17.974 11.3836 17.8715 11.0864C17.8373 10.9904 17.7494 10.835 17.6712 10.7435L17.5344 10.579L17.6272 10.2864C17.681 10.1264 17.7787 9.72406 17.8519 9.39948C17.974 8.86917 17.9887 8.70459 17.9887 7.89085C17.9936 6.86681 17.9496 6.63823 17.6468 6.05764C17.3244 5.44047 16.7041 4.98788 15.991 4.85073C15.7859 4.80959 15.7077 4.76844 15.5905 4.63129C15.2681 4.25642 14.5697 4.03241 13.6465 4.00499C13.3242 3.99584 12.9969 4.00041 12.9139 4.00956Z" fill="black"/>
</svg>
