<svg width="27" height="19" viewBox="0 0 27 19" fill="none" xmlns="http://www.w3.org/2000/svg">
<path d="M13.6641 11.5817C14.9528 11.5817 15.9975 10.537 15.9975 9.24837C15.9975 7.95971 14.9528 6.91504 13.6641 6.91504C12.3755 6.91504 11.3308 7.95971 11.3308 9.24837C11.3308 10.537 12.3755 11.5817 13.6641 11.5817Z" stroke="white" stroke-width="2" stroke-linecap="round" stroke-linejoin="round"/>
<path d="M7.71751 14.195C7.06667 13.5449 6.55036 12.7729 6.19809 11.9231C5.84582 11.0733 5.6645 10.1624 5.6645 9.2425C5.6645 8.32259 5.84582 7.41171 6.19809 6.56192C6.55036 5.71213 7.06667 4.94011 7.71751 4.29M4.41584 17.4967C2.22868 15.3088 1 12.3419 1 9.24834C1 6.15475 2.22868 3.18782 4.41584 1" stroke="white" stroke-width="2" stroke-linecap="round" stroke-linejoin="round"/>
<path d="M19 4.30158C19.6509 4.95169 20.1672 5.72371 20.5194 6.5735C20.8717 7.42328 21.053 8.33417 21.053 9.25408C21.053 10.174 20.8717 11.0849 20.5194 11.9347C20.1672 12.7844 19.6509 13.5565 19 14.2066M22.3017 0.999912C24.4889 3.18774 25.7175 6.15466 25.7175 9.24825C25.7175 12.3418 24.4889 15.3088 22.3017 17.4966" stroke="white" stroke-width="2" stroke-linecap="round" stroke-linejoin="round"/>
</svg>
