<svg width="30" height="30" viewBox="0 0 30 30" fill="none" xmlns="http://www.w3.org/2000/svg">
<path d="M17.8777 6.79272L16.1538 8.4268V8.54757C17.58 10.2112 18.4615 12.4886 18.4615 15.0001C18.4615 17.5141 17.58 19.7889 16.1538 21.4526V21.5734L17.8777 23.2074C19.6684 21.078 20.7692 18.1869 20.7692 15.0001C20.7692 11.8133 19.6684 8.9222 17.8777 6.79272Z" fill="white"/>
<path d="M0 10.0708V15.0001V19.9295H4.61538L11.5385 27.3235V2.67676L4.61538 10.0708H0Z" fill="white"/>
<path d="M21.5076 3.34473L19.7815 4.98127C21.8446 7.72691 23.0769 11.2095 23.0769 15.0002C23.0769 18.7908 21.8446 22.2759 19.7838 25.0166L21.5076 26.6531C23.933 23.4762 25.3846 19.4218 25.3846 15.0002C25.3846 10.581 23.933 6.52415 21.5076 3.34473Z" fill="white"/>
<path d="M25.034 0L23.2986 1.6464C26.0447 5.28919 27.6924 9.9351 27.6924 15C27.6924 20.0649 26.0447 24.7083 23.2986 28.3536L25.034 30C28.1332 25.9185 30.0001 20.6934 30.0001 15C30.0001 9.3066 28.1332 4.0815 25.034 0Z" fill="white"/>
</svg>
