<svg width="124" height="25" viewBox="0 0 124 25" fill="none" xmlns="http://www.w3.org/2000/svg">
<path d="M9.04408 19.8835H4.93314V24.026H9.04408V19.8835Z" fill="#FFE600"/>
<path d="M13.9772 19.8835H9.86627V24.026H13.9772V19.8835Z" fill="#FFF384"/>
<path d="M18.9103 19.8835H14.7994V24.026H18.9103V19.8835Z" fill="#00FF66"/>
<path d="M23.8435 19.8835H19.7325V24.026H23.8435V19.8835Z" fill="#66FFA3"/>
<path d="M23.8435 14.9128H19.7325V19.0553H23.8435V14.9128Z" fill="#00FF66"/>
<path d="M18.9103 14.9128H14.7994V19.0553H18.9103V14.9128Z" fill="#FFF384"/>
<path d="M13.9772 14.9128H9.86627V19.0553H13.9772V14.9128Z" fill="#FFE600"/>
<path d="M9.04408 14.9128H4.93314V19.0553H9.04408V14.9128Z" fill="#FF3737"/>
<path d="M4.11094 19.8835H0V24.026H4.11094V19.8835Z" fill="#FF3737"/>
<path d="M13.9772 9.94177H9.86627V14.0842H13.9772V9.94177Z" fill="#FF3737"/>
<path d="M18.9103 9.94177H14.7994V14.0842H18.9103V9.94177Z" fill="#FFE600"/>
<path d="M23.8435 9.94177H19.7325V14.0842H23.8435V9.94177Z" fill="#FFF384"/>
<path d="M23.8435 4.97095H19.7325V9.11338H23.8435V4.97095Z" fill="#FFE600"/>
<path d="M18.9103 4.97095H14.7994V9.11338H18.9103V4.97095Z" fill="#FF3737"/>
<path d="M23.8435 0H19.7325V4.14244H23.8435V0Z" fill="#FF3737"/>
<path d="M39.7375 24.3161C38.6632 24.3161 37.7135 24.2678 36.8886 24.1711C36.0637 24.0744 35.2484 23.9101 34.4426 23.6781C33.5793 23.4461 32.8695 23.1369 32.3132 22.7502C31.7568 22.3443 31.306 21.8223 30.9607 21.1844C30.6153 20.5078 30.4427 19.7345 30.4427 18.8646V11.0354C30.4427 10.0882 30.6345 9.23759 31.0182 8.48367C31.4019 7.71044 31.9199 7.1015 32.5722 6.65685C33.1861 6.25089 33.915 5.90293 34.7592 5.61296C35.6225 5.32299 36.4666 5.1297 37.2915 5.03302C37.9822 4.95569 38.8167 4.91703 39.7951 4.91703C42.4425 4.91703 44.9749 5.12001 47.3921 5.52597V8.94762C45.1667 8.40637 42.6343 8.1357 39.7951 8.1357C36.5529 8.1357 34.9318 9.08291 34.9318 10.9774V18.5456C34.9318 19.4736 35.3635 20.1308 36.2268 20.5174C37.1092 20.9041 38.433 21.0974 40.198 21.0974C41.138 21.0974 42.1451 20.9524 43.2195 20.6624V16.2839H40.1692V13.3262H47.5072V23.0982C46.548 23.4461 45.3202 23.7361 43.8238 23.9681C42.3466 24.2001 40.9845 24.3161 39.7375 24.3161ZM51.0777 3.72815H55.2791V24.0261H51.0777V3.72815ZM63.0266 24.3161C61.722 24.3161 60.7436 24.2001 60.0914 23.9681C59.4583 23.7168 59.0074 23.2819 58.7389 22.6632C58.4894 22.0253 58.3648 21.0781 58.3648 19.8215C58.3648 18.7003 58.499 17.8207 58.7676 17.1828C59.0554 16.5448 59.5062 16.0906 60.1202 15.8199C60.7532 15.53 61.6165 15.385 62.71 15.385H67.4294V14.4281C67.4294 13.8288 67.3431 13.3842 67.1704 13.0942C67.0169 12.8042 66.7195 12.6012 66.2783 12.4853C65.8562 12.3693 65.2136 12.3113 64.3503 12.3113C63.1608 12.3113 61.5302 12.4273 59.4583 12.6592V9.99151C60.9738 9.79823 62.7484 9.70154 64.782 9.70154C66.5661 9.70154 67.9378 9.83684 68.897 10.1075C69.8754 10.3782 70.5756 10.8421 70.9977 11.4994C71.4197 12.1566 71.6308 13.1135 71.6308 14.3701V24.0261H67.5157V22.7502C67.1896 23.3109 66.7483 23.7071 66.192 23.9391C65.6356 24.1904 64.5805 24.3161 63.0266 24.3161ZM64.6669 21.6773C65.5109 21.6773 66.1152 21.6483 66.4798 21.5903C66.7483 21.5516 66.9306 21.4937 67.0265 21.4164C67.1416 21.3391 67.2375 21.2134 67.3143 21.0394C67.391 20.9041 67.4294 20.7011 67.4294 20.4305V17.7047H64.5517C63.8994 17.7047 63.439 17.753 63.1705 17.8497C62.9019 17.927 62.7196 18.101 62.6237 18.3717C62.5278 18.6229 62.4798 19.0773 62.4798 19.7345C62.4798 20.3725 62.5278 20.8171 62.6237 21.0684C62.7196 21.3197 62.9019 21.484 63.1705 21.5613C63.4582 21.6386 63.957 21.6773 64.6669 21.6773ZM75.3272 9.99151H79.3271V12.4563C79.3271 12.0116 79.5094 11.5767 79.8739 11.1514C80.2384 10.7261 80.6989 10.3782 81.2552 10.1075C81.8307 9.83684 82.3964 9.70154 82.9531 9.70154H84.4494V13.2102H83.0106C81.8212 13.2102 80.9386 13.3939 80.3631 13.7611C79.8068 14.1284 79.5286 14.7373 79.5286 15.5879V24.0261H75.3272V9.99151ZM86.8798 4.91703H91.0812V8.33868H86.8798V4.91703ZM86.8798 9.99151H91.0812V24.0261H86.8798V9.99151ZM99.7208 24.3161C97.9366 24.3161 96.6803 23.9971 95.951 23.3592C95.2415 22.7019 94.8863 21.6773 94.8863 20.2855V9.99151H99.0877V19.7055C99.0877 20.2468 99.1354 20.6527 99.2316 20.9234C99.3467 21.1941 99.558 21.3874 99.8647 21.5033C100.191 21.6193 100.68 21.6773 101.332 21.6773C102.157 21.6773 102.761 21.629 103.145 21.5323C103.529 21.4164 103.788 21.2231 103.922 20.9524C104.056 20.6817 104.124 20.2662 104.124 19.7055V9.99151H108.325V24.0261H104.181V22.3153C103.874 23.6491 102.387 24.3161 99.7208 24.3161ZM117.209 24.3161C115.712 24.3161 113.88 24.1711 111.712 23.8811V21.0684C114.38 21.4743 116.23 21.6773 117.266 21.6773C118.149 21.6773 118.801 21.5903 119.223 21.4164C119.646 21.2424 119.856 20.9234 119.856 20.4595V19.5895C119.856 19.1063 119.722 18.7679 119.453 18.5746C119.185 18.362 118.657 18.2557 117.871 18.2557H116.058C114.581 18.2557 113.439 17.9657 112.633 17.3858C111.828 16.7865 111.425 15.9166 111.425 14.776V13.0652C111.425 11.8473 112 10.9871 113.151 10.4845C114.302 9.96252 116.039 9.70154 118.36 9.70154C119.281 9.70154 120.931 9.78853 123.309 9.96252V12.6592C120.317 12.4273 118.629 12.3113 118.245 12.3113C117.113 12.3113 116.374 12.3886 116.029 12.5433C115.722 12.7172 115.568 13.0362 115.568 13.5002V14.2541C115.568 14.5054 115.693 14.7277 115.943 14.921C116.192 15.095 116.557 15.182 117.036 15.182H118.878C122.293 15.182 124 16.3032 124 18.5456V20.3145C124 20.9911 123.876 21.5806 123.626 22.0833C123.377 22.5859 123.05 22.9822 122.647 23.2722C122.264 23.5428 121.765 23.7554 121.151 23.9101C120.557 24.0648 119.933 24.1711 119.281 24.2291C118.686 24.2871 117.996 24.3161 117.209 24.3161Z" fill="white"/>
</svg>
